<svg width="1em" height="1em" viewBox="0 0 12 12" fill="currentColor" xmlns="http://www.w3.org/2000/svg">
<path fill-rule="evenodd" clip-rule="evenodd" d="M4.74998 9.33333C4.74998 9.79357 5.12308 10.1667 5.58331 10.1667H6.41665C6.87688 10.1667 7.24998 9.79357 7.24998 9.33333V9.33333C7.24998 8.87309 6.87688 8.5 6.41665 8.5H5.58331C5.12308 8.5 4.74998 8.87309 4.74998 9.33333V9.33333ZM1.41665 1.83333C0.956409 1.83333 0.583313 2.20642 0.583313 2.66666V2.66666C0.583313 3.1269 0.956409 3.5 1.41665 3.5H10.5833C11.0435 3.5 11.4166 3.1269 11.4166 2.66666V2.66666C11.4166 2.20642 11.0435 1.83333 10.5833 1.83333H1.41665ZM3.08331 6C3.08331 6.46023 3.45641 6.83333 3.91665 6.83333H8.08331C8.54355 6.83333 8.91665 6.46023 8.91665 6V6C8.91665 5.53976 8.54355 5.16666 8.08331 5.16666H3.91665C3.45641 5.16666 3.08331 5.53976 3.08331 6V6Z"/>
</svg>
